<?xml version="1.0" encoding="UTF-8"?>
<svg id="Layer_2" data-name="Layer 2" xmlns="http://www.w3.org/2000/svg" viewBox="0 0 215.46 51.88">
  <defs>
    <style>
      .cls-1 {
        stroke-linecap: round;
        stroke-linejoin: bevel;
      }

      .cls-1, .cls-2 {
        stroke: #fff;
        stroke-width: 4px;
      }

      .cls-1, .cls-2, .cls-3 {
        fill: #fff;
      }

      .cls-2 {
        stroke-miterlimit: 10;
      }

      .cls-4 {
        fill: #f90;
      }

      .cls-5 {
        fill: #90c;
      }

      .cls-6 {
        fill: #ff0;
      }

      .cls-7 {
        fill: #06f;
      }

      .cls-8 {
        fill: #f03;
      }

      .cls-9 {
        fill: #0f3;
      }
    </style>
  </defs>
  <g id="Layer_1-2" data-name="Layer 1">
    <g>
      <rect class="cls-1" x="50.46" y="6.83" width="27" height="35.42"/>
      <rect class="cls-1" x="71.79" y="11.83" width="23.67" height="25.64"/>
      <rect class="cls-1" x="47.46" y="11.83" width="134" height="28"/>
      <rect class="cls-2" x="47.46" y="6.83" width="23" height="19"/>
      <rect class="cls-1" x="139.45" y="16.3" width="23.67" height="28.89"/>
      <rect class="cls-1" x="37.46" y="32.83" width="144" height="17"/>
      <g>
        <path class="cls-4" d="M63.66,49.54c-11.63,0-19.76-7.71-19.76-18.74V8.12c0-3.18,2.06-5.24,5.24-5.24h4.56c3.18,0,5.24,2.06,5.24,5.24v22.68c0,3.26,1.76,5.2,4.72,5.2,2.31,0,4.78-1.37,4.78-5.2V8.12c0-3.18,2.06-5.24,5.24-5.24h4.5c3.18,0,5.24,2.06,5.24,5.24v22.68c0,11.03-8.13,18.74-19.76,18.74Z"/>
        <path class="cls-3" d="M78.18,4.88c2.1,0,3.24,1.14,3.24,3.24v22.68c0,10.86-8.16,16.74-17.76,16.74s-17.76-5.88-17.76-16.74V8.12c0-2.1,1.14-3.24,3.24-3.24h4.56c2.1,0,3.24,1.14,3.24,3.24v22.68c0,4.74,3.06,7.2,6.72,7.2s6.78-2.46,6.78-7.2V8.12c0-2.1,1.14-3.24,3.24-3.24h4.5M78.18.88h-4.5c-4.33,0-7.24,2.91-7.24,7.24v22.68c0,2.64-1.51,3.2-2.78,3.2-1.83,0-2.72-1.05-2.72-3.2V8.12c0-4.33-2.91-7.24-7.24-7.24h-4.56c-4.33,0-7.24,2.91-7.24,7.24v22.68c0,12.21,8.95,20.74,21.76,20.74s21.76-8.53,21.76-20.74V8.12c0-4.33-2.91-7.24-7.24-7.24h0Z"/>
      </g>
      <g>
        <path class="cls-8" d="M37.73,49.88c-2.68,0-4.7-1.37-5.67-3.85l-1.43-3.77h-11.99l-1.36,3.68c-.87,2.53-2.88,3.95-5.63,3.95h-4.74c-1.88,0-3.38-.69-4.22-1.94-.84-1.25-.92-2.89-.21-4.62L16.55,6.69c.98-2.5,3.02-3.87,5.74-3.87h4.8c2.72,0,4.68,1.33,5.67,3.85l14.39,36.66c.67,1.78.57,3.42-.28,4.65-.84,1.22-2.32,1.89-4.17,1.89h-4.98ZM27.09,29.39l-2.44-6.89-2.56,6.89h5Z"/>
        <path class="cls-3" d="M27.09,4.83c1.91,0,3.14.86,3.81,2.58l14.39,36.66c.86,2.28-.12,3.81-2.58,3.81h-4.98c-1.84,0-3.14-.86-3.81-2.58l-1.91-5.04h-14.76l-1.84,4.98c-.62,1.78-1.85,2.64-3.75,2.64h-4.74c-2.46,0-3.51-1.54-2.58-3.81L18.42,7.41c.68-1.72,1.97-2.58,3.88-2.58h4.8M19.22,31.39h10.7l-5.23-14.76-5.47,14.76M27.09.83h-4.8c-3.55,0-6.32,1.87-7.6,5.12L.61,42.6c-1.27,3.18-.28,5.41.42,6.45.71,1.05,2.42,2.82,5.88,2.82h4.74c3.6,0,6.34-1.93,7.52-5.29l.86-2.33h9.21l.93,2.46.02.05c1.28,3.25,4.02,5.12,7.54,5.12h4.98c3.4,0,5.1-1.73,5.81-2.75.72-1.04,1.73-3.25.51-6.48L34.63,5.95c-1.28-3.25-4.03-5.12-7.54-5.12h0Z"/>
      </g>
      <g>
        <path class="cls-6" d="M101.5,49.54c-8.78,0-15.36-3.85-18.05-10.55-.72-1.87-.33-3.25.11-4.09.67-1.26,1.96-2.17,3.63-2.56l2.99-.72c.5-.11.96-.17,1.39-.17,2.46,0,3.83,1.69,4.74,3.16.99,1.53,2.79,2.35,5.2,2.35.64,0,3.82-.09,3.82-1.84,0-.85-.93-1.58-2.76-2.18l-5.16-1.88c-8.31-2.67-12.98-7.62-13.07-13.91,0-8.66,7.33-14.93,17.42-14.93,7.09,0,12.41,2.96,15.38,8.56.76,1.39.89,2.87.36,4.14-.56,1.35-1.79,2.36-3.48,2.86l-2.85.79c-.57.17-1.13.25-1.67.25-2.18,0-3.56-1.34-4.62-2.66l-.05-.06-.05-.07c-.56-.83-1.49-1.23-2.85-1.23-1.13,0-2.8.39-2.8,1.48,0,.84,1.43,1.53,2.64,1.96l5.04,1.8c8.89,3.05,13.12,7.69,13.27,14.62,0,9.06-7.29,14.88-18.56,14.88Z"/>
        <path class="cls-3" d="M101.74,4.22c6.54,0,11.1,2.76,13.62,7.5,1.08,1.98.12,3.54-1.92,4.14l-2.82.78c-.41.12-.79.18-1.14.18-1.21,0-2.08-.71-3.06-1.92-.9-1.32-2.4-2.1-4.5-2.1-2.52,0-4.8,1.2-4.8,3.48,0,1.32.78,2.7,3.96,3.84l5.04,1.8c8.76,3,11.82,7.2,11.94,12.78,0,8.58-7.5,12.84-16.56,12.84-8.04,0-13.86-3.48-16.2-9.3-.78-2.04.3-3.48,2.34-3.96l3-.72c.33-.07.64-.11.92-.11,1.31,0,2.15.78,3.04,2.21,1.32,2.04,3.66,3.3,6.9,3.3,3.48,0,5.82-1.38,5.82-3.84,0-1.56-1.02-3.06-4.14-4.08l-5.1-1.86c-3.54-1.14-11.64-4.38-11.76-12.06,0-7.86,6.72-12.9,15.42-12.9M101.74.22c-11.25,0-19.42,7.11-19.42,16.9v.06c.08,5.07,2.66,9.35,7.4,12.48h-.01s-3,.72-3,.72c-2.23.52-3.98,1.79-4.92,3.57-.9,1.7-.98,3.73-.22,5.71v.03s.02.03.02.03c3.02,7.5,10.27,11.81,19.91,11.81,12.3,0,20.56-6.77,20.56-16.84v-.09c-.14-6.28-3.29-11-9.6-14.33l2.04-.57h.03s.03-.02.03-.02c2.28-.67,3.97-2.1,4.77-4.01.76-1.84.6-3.93-.46-5.88C115.6,3.64,109.51.22,101.74.22h0ZM97.98,33.51s-.06-.09-.09-.14l3.93,1.43.06.02.06.02c.09.03.18.06.26.09-.21.02-.44.03-.7.03-1.7,0-2.89-.49-3.53-1.45h0Z"/>
      </g>
      <g>
        <path class="cls-9" d="M134.82,48.88c-3.18,0-5.24-2.06-5.24-5.24v-27.34h-6.58c-3.18,0-5.24-2.06-5.24-5.24v-2.94c0-3.18,2.06-5.24,5.24-5.24h28.2c3.18,0,5.24,2.06,5.24,5.24v2.94c0,3.18-2.06,5.24-5.24,5.24h-6.82v27.34c0,3.18-2.06,5.24-5.24,5.24h-4.32Z"/>
        <path class="cls-3" d="M151.2,4.88c2.1,0,3.24,1.14,3.24,3.24v2.94c0,2.1-1.14,3.24-3.24,3.24h-8.82v29.34c0,2.1-1.14,3.24-3.24,3.24h-4.32c-2.1,0-3.24-1.14-3.24-3.24V14.3h-8.58c-2.1,0-3.24-1.14-3.24-3.24v-2.94c0-2.1,1.14-3.24,3.24-3.24h28.2M151.2.88h-28.2c-4.33,0-7.24,2.91-7.24,7.24v2.94c0,4.33,2.91,7.24,7.24,7.24h4.58v25.34c0,4.33,2.91,7.24,7.24,7.24h4.32c4.33,0,7.24-2.91,7.24-7.24v-25.34h4.82c4.33,0,7.24-2.91,7.24-7.24v-2.94c0-4.33-2.91-7.24-7.24-7.24h0Z"/>
      </g>
      <g>
        <path class="cls-7" d="M162.02,2.88h4.56c2.89,0,5.24,2.35,5.24,5.24v35.52c0,2.89-2.35,5.24-5.24,5.24h-4.56c-2.89,0-5.24-2.35-5.24-5.24V8.12c0-2.89,2.35-5.24,5.24-5.24Z"/>
        <path class="cls-3" d="M166.58,4.88c2.04,0,3.24,1.14,3.24,3.24v35.52c0,2.1-1.2,3.24-3.24,3.24h-4.56c-2.1,0-3.24-1.14-3.24-3.24V8.12c0-2.1,1.14-3.24,3.24-3.24h4.56M166.58.88h-4.56c-4.33,0-7.24,2.91-7.24,7.24v35.52c0,4.33,2.91,7.24,7.24,7.24h4.56c4.26,0,7.24-2.98,7.24-7.24V8.12c0-4.26-2.98-7.24-7.24-7.24h0Z"/>
      </g>
      <g>
        <path class="cls-5" d="M205.19,49.88c-2.45,0-4.32-.98-5.71-2.99l-11.78-16.47v14.07c0,3.27-2.11,5.38-5.39,5.38h-4.76c-3.32,0-5.38-2.06-5.38-5.38V7.38c0-3.32,2.06-5.38,5.38-5.38h2.95c2.4,0,4.28.96,5.75,2.94l11.68,16.24V7.38c0-3.32,2.06-5.38,5.39-5.38h4.76c3.32,0,5.38,2.06,5.38,5.38v37.11c0,3.32-2.06,5.38-5.38,5.38h-2.88Z"/>
        <path class="cls-3" d="M208.07,4c2.19,0,3.39,1.19,3.39,3.38v37.11c0,2.19-1.19,3.39-3.39,3.39h-2.88c-1.82,0-3.07-.69-4.07-2.13l-15.42-21.56v20.31c0,2.19-1.25,3.39-3.39,3.39h-4.76c-2.19,0-3.38-1.19-3.38-3.39V7.38c0-2.19,1.19-3.38,3.38-3.38h2.95c1.82,0,3.07.69,4.14,2.13l15.29,21.25V7.38c0-2.19,1.19-3.38,3.39-3.38h4.76M208.07,0h-4.76c-4.42,0-7.39,2.97-7.39,7.38v7.59l-8.05-11.18-.02-.02-.02-.02c-1.84-2.49-4.32-3.75-7.35-3.75h-2.95c-4.42,0-7.38,2.97-7.38,7.38v37.11c0,4.42,2.97,7.39,7.38,7.39h4.76c4.35,0,7.39-3.04,7.39-7.39v-7.84l8.15,11.4c1.77,2.54,4.24,3.82,7.34,3.82h2.88c4.42,0,7.39-2.97,7.39-7.39V7.38c0-4.42-2.97-7.38-7.39-7.38h0Z"/>
      </g>
    </g>
  </g>
</svg>