<?xml version="1.0" encoding="UTF-8"?>
<svg id="Layer_2" data-name="Layer 2" xmlns="http://www.w3.org/2000/svg" xmlns:xlink="http://www.w3.org/1999/xlink" viewBox="0 0 256 89.28">
  <defs>
    <style>
      .cls-1 {
        fill: #242321;
      }

      .cls-2 {
        fill: #2b7200;
      }

      .cls-3 {
        fill: #6565fe;
      }

      .cls-4 {
        fill: #8e4500;
      }

      .cls-5 {
        fill: #fcfb03;
      }

      .cls-6 {
        fill: #615156;
      }

      .cls-7 {
        fill: #763e04;
      }

      .cls-8 {
        fill: #349c69;
      }

      .cls-9 {
        fill: #eb6d0c;
      }

      .cls-10 {
        fill: #f9f8fb;
      }

      .cls-11 {
        fill: #01cb99;
      }

      .cls-12 {
        fill: #a77000;
      }

      .cls-13 {
        fill: #df9c9f;
      }

      .cls-14 {
        fill: #770602;
      }

      .cls-15 {
        fill: #f26a09;
      }

      .cls-16 {
        fill: #37c5b6;
      }

      .cls-17 {
        fill: #c8a17c;
      }

      .cls-18 {
        fill: #c93805;
      }

      .cls-19 {
        fill: #f6f6fb;
      }

      .cls-20 {
        fill: #ec9c14;
      }

      .cls-21 {
        fill: #f88fbf;
      }

      .cls-22 {
        fill: #bc9672;
      }

      .cls-23 {
        fill: #fcf7f7;
      }

      .cls-24 {
        fill: #e9b9e1;
      }

      .cls-25 {
        fill: #aca1b7;
      }

      .cls-26 {
        fill: #bf541c;
      }

      .cls-27 {
        fill: #fe6666;
      }

      .cls-28 {
        fill: #d5a000;
      }

      .cls-29 {
        fill: #ad760a;
      }

      .cls-30 {
        fill: #daa600;
      }

      .cls-31 {
        fill: #2b2e2e;
      }

      .cls-32 {
        fill: #282b2b;
      }

      .cls-33 {
        fill: #b0dcec;
      }

      .cls-34 {
        fill: #f5e203;
      }

      .cls-35 {
        fill: #c0b6b5;
      }

      .cls-36 {
        fill: #32cbcb;
      }

      .cls-37 {
        fill: #febf02;
      }

      .cls-38 {
        fill: #34955c;
      }

      .cls-39 {
        fill: #ef94c8;
      }

      .cls-40 {
        fill: #e19f9c;
      }

      .cls-41 {
        fill: #fe9206;
      }

      .cls-42 {
        fill: #519fe0;
      }

      .cls-43 {
        fill: #983365;
      }

      .cls-44 {
        fill: #983306;
      }

      .cls-45 {
        fill: #ed86ab;
      }

      .cls-46 {
        fill: #e7b7e2;
      }

      .cls-47 {
        fill: #8b4102;
      }

      .cls-48 {
        fill: #fbfbfa;
      }

      .cls-49 {
        fill: #f89a96;
      }

      .cls-50 {
        fill: #f6df03;
      }

      .cls-51 {
        fill: #febf00;
      }

      .cls-52 {
        fill: #cdcccf;
      }

      .cls-53 {
        fill: #42add4;
      }

      .cls-54 {
        fill: #fe8e06;
      }

      .cls-55 {
        fill: #cb3e07;
      }

      .cls-56 {
        fill: #feba06;
      }

      .cls-57 {
        fill: #d62381;
      }

      .cls-58 {
        fill: #f8f609;
      }

      .cls-59 {
        fill: #f8f1f0;
      }

      .cls-60 {
        fill: #743c03;
      }

      .cls-61 {
        fill: #f90;
      }

      .cls-62 {
        fill: #a33839;
      }

      .cls-63 {
        fill: #db521f;
      }

      .cls-64 {
        fill: #9b4f0b;
      }

      .cls-65 {
        fill: #90c;
      }

      .cls-66 {
        fill: #e99814;
      }

      .cls-67 {
        fill: #3bcccc;
      }

      .cls-68 {
        fill: #0b0601;
      }

      .cls-69 {
        fill: #fb9a06;
      }

      .cls-70 {
        fill: #701252;
      }

      .cls-71 {
        fill: #fb6a07;
      }

      .cls-72 {
        fill: #343737;
      }

      .cls-73 {
        fill: #3cc3aa;
      }

      .cls-74 {
        fill: #fe4681;
      }

      .cls-75 {
        fill: #339f5d;
      }

      .cls-76 {
        fill: #a24144;
      }

      .cls-77 {
        fill: #020100;
      }

      .cls-78 {
        fill: #fc8e05;
      }

      .cls-79 {
        fill: #fff;
      }

      .cls-80 {
        fill: #ff0;
      }

      .cls-81 {
        fill: #f8ef0c;
      }

      .cls-82 {
        fill: #cca0a2;
      }

      .cls-83 {
        fill: #38393a;
      }

      .cls-84 {
        fill: #06f;
      }

      .cls-85 {
        fill: #b06a12;
      }

      .cls-86 {
        fill: #060401;
      }

      .cls-87 {
        fill: #d49b00;
      }

      .cls-88 {
        fill: #ec8ac6;
      }

      .cls-89 {
        fill: #84cce4;
      }

      .cls-90 {
        fill: #fe6599;
      }

      .cls-91 {
        fill: #211d1c;
      }

      .cls-92 {
        fill: #713a02;
      }

      .cls-93 {
        fill: #e8bbe3;
      }

      .cls-94 {
        fill: #f4f7f8;
      }

      .cls-95 {
        fill: #a13b3f;
      }

      .cls-96 {
        fill: #faf9f7;
      }

      .cls-97 {
        fill: #fe5b39;
      }

      .cls-98 {
        fill: #411f0b;
      }

      .cls-99 {
        fill: #f03;
      }

      .cls-100 {
        fill: #f8f6fa;
      }

      .cls-101 {
        fill: #ad7709;
      }

      .cls-102 {
        fill: #f85e26;
      }

      .cls-103 {
        fill: #fc6601;
      }

      .cls-104 {
        fill: #fc8e06;
      }

      .cls-105 {
        fill: #a23437;
      }

      .cls-106 {
        fill: #e480b6;
      }

      .cls-107 {
        fill: #a87000;
      }

      .cls-108 {
        fill: #ed722c;
      }

      .cls-109 {
        fill: #9d45de;
      }

      .cls-110 {
        fill: #4dc4a6;
      }

      .cls-111 {
        fill: #7198ef;
      }

      .cls-112 {
        fill: #36c998;
      }

      .cls-113 {
        fill: #0e0c0a;
      }

      .cls-114 {
        fill: #883b00;
      }

      .cls-115 {
        fill: #660166;
      }

      .cls-116 {
        fill: #0f3;
      }

      .cls-117 {
        fill: #fecd06;
      }

      .cls-118 {
        fill: #349700;
      }

      .cls-119 {
        fill: #0265cd;
      }

      .cls-120 {
        fill: #9943df;
      }

      .cls-121 {
        fill: #964b02;
      }

      .cls-122 {
        fill: #329f5e;
      }

      .cls-123 {
        fill: #131814;
      }

      .cls-124 {
        fill: #fefe01;
      }

      .cls-125 {
        fill: #f8f50a;
      }

      .cls-126 {
        fill: #fcfcfc;
      }

      .cls-127 {
        fill: #1c1d1d;
      }

      .cls-128 {
        fill: #980133;
      }

      .cls-129 {
        fill: #853700;
      }

      .cls-130 {
        fill: #fc5e29;
      }

      .cls-131 {
        fill: #fcf900;
      }

      .cls-132 {
        fill: #111512;
      }

      .cls-133 {
        fill: #eaf2ef;
      }

      .cls-134 {
        fill: #cb6633;
      }

      .cls-135 {
        fill: #c5b5d9;
      }

      .cls-136 {
        fill: #8b4002;
      }

      .cls-137 {
        fill: #f9fafb;
      }

      .cls-138 {
        fill: #fd6763;
      }

      .cls-139 {
        fill: #d5178a;
      }

      .cls-140 {
        fill: #924a00;
      }

      .cls-141 {
        fill: #f8dd8b;
      }

      .cls-142 {
        fill: #914906;
      }

      .cls-143 {
        fill: #ec752f;
      }

      .cls-144 {
        fill: #fe9907;
      }

      .cls-145 {
        fill: #43b1d7;
      }

      .cls-146 {
        fill: #2d3130;
      }

      .cls-147 {
        fill: #242824;
      }

      .cls-148 {
        fill: #fefe00;
      }

      .cls-149 {
        fill: #eff6f7;
      }

      .cls-150 {
        fill: #fdfd00;
      }

      .cls-151 {
        fill: #fd6fc0;
      }

      .cls-152 {
        fill: #fc6701;
      }

      .cls-153 {
        fill: #a1393e;
      }

      .cls-154 {
        fill: #d01e8c;
      }
    </style>
  </defs>
  <g id="Layer_1-2" data-name="Layer 1">
    <g>
      <g>
        <path class="cls-140" d="M173.79,11.93l-.09.03c-.71-1.16-1.39-2.35-2.06-3.57l-.12.11c.23.48.28.93.14,1.37.21.33.23.63.07.89.24.45.39,1.17.21,1.65.02.18-.02.37,0,.55-.1.09-.14.05-.07-.07h-5.29c-.01.06-.04.06-.07,0l-.09.13-.86-.08c-.22.06-.41.07-.56.02-.06-.02-.06-.05,0-.07h-5.35c-.02.06-.04.06-.07,0,.02-.16.05-.32.07-.48-.16-.61-.04-1.47.21-2.06l.02-.38c-.15-.18-.12-.86.12-.99-.03-.17-.06-.35-.09-.52l-1.96,3.46h-.15c-.41-.28-.68-.5-.86-1.02-.74-2.18,1.91-3.48,3.09-4.86.46-.54.7-1.11,1.08-1.67,2.16-3.2,6.58-3.39,9.05-.42.52.62.81,1.4,1.34,2.02,1.19,1.4,4.16,2.94,3.04,5.16-.19.37-.43.57-.74.8Z"/>
        <path class="cls-28" d="M159.51,13.85c.1-.09.14-.05.07.07h5.35c0-.06.03-.06.07,0l.12-.12c.47.17.91.18,1.32.05l.14.07c1.78.12,3.63.07,5.42,0-.09-.1-.05-.14.07-.07,1.1-.35,2.31-.71,3.43-.96.05,0,.13-.02.15.02.12.19.51,1.66.57,1.97l-.1.13c-1.26.43-2.55.74-3.82,1.16.08.88.2,1.74-.03,2.61l-.09.04c-.41-.6-.51-.45-.27.47l-.12.11c.18.07-.06.66-.21.75l-.48.55c-.11.16-.37.05-.34-.14l-.13-.06c-.03-.62-.13-.73-.53-.2l-.16-.02-.16-.03c-.21-.5-.43-.33-.4.14l-.13.1c.11.17-.13.32-.27.21-.39.12-.86.09-1.24-.07-.04.24-.35.17-.42-.03-.17-.75-.82-1.14-1.56-1.09-.14-.17-.3-.29-.48-.36.41.67-.07.53-.52.38-.2-.06.02.1.12.15.07.17-.37.86-.57.87-1.24.03-2.51.03-3.78,0l-.13.07c-.11-.12-.2-.26-.34-.34-.27-.06-.24-.74.05-.82.85-.02,1.71-.02,2.56,0,.04-.14.03-.27-.03-.37l.09-.04c-.19-.04-.17-.21,0-.27l-.09-.02c0-.27-.04-.52-.13-.73h-2.65s-.08-.14-.08-.14c-.04-.09.03-.23.14-.21.12-.02.21-.07.27-.14-.3.13-.42.07-.34-.21l-.21-.21c-.15.02-.32.01-.48,0-.07-.22.18-.84.03-.97-1.24-.4-2.51-.72-3.73-1.16-.05-.02-.12-.06-.11-.1.07-.36.43-1.7.57-1.97l.16-.06c1.15.3,2.27.7,3.43.96Z"/>
        <path class="cls-8" d="M158.28,17.89c.3.01.48,0,.78-.13.24.21.44.28.73.13h2.77c.28.1.18.64.19.89l-.06.14h-3.31s-.06.14-.06.14c1.1.04,2.22.05,3.35.03.07.04.04.29.02.38-.02.03-.02.08-.07.1-.06.03-.11.03-.17.04-.62.08-1.81-.14-2.33,0-.15.04-.04.53-.04.68,0,.57,0,1.14,0,1.71l-.08.14h-1.15s-.14.14-.14.14c.24-.02.17.59,0,.65-.32.13-.53-.58-.21-.65-.17-.1-.17-.17,0-.27-.16-.04-.33-.05-.5-.03-.07-.04-.02-1.25.02-1.41,0-.23,0-.46,0-.69-.06-.61-.06-1.24,0-1.85.07-.12.12-.15.27-.14Z"/>
        <path class="cls-12" d="M154.23,21.87c-.04-.48-.3-.34-.58-.68-.37-.45-.36-.97-.24-1.51-.81.21-1.4-.7-.76-1.27.53-.47,1.25.03,1.27.65l.38-.24c-.86-.4-.46-1.6.48-1.38.41.1.64.58.48.97-.06.15-.21.21-.21.37.42-.16,1.01.67,1.08.69.16.04.56-.01.78,0l-.03.17c-.52.27-.51.85-.04,1.17v.17c-.2.01-.58-.05-.75.03-.09.05-.15.23-.24.31-.23.2-.4.13-.45.48-.05.19-.3.2-.34,0-.08.19-.27.18-.34,0-.07.19-.34.18-.48.07Z"/>
        <path class="cls-42" d="M172.42,19.06c.24.13.78.18,1.05.12.36-.08.62-.71,1.24-.67.17.01.4.16.54.12.17-.04.55-.49.9-.39s-.03.31-.06.34c-.06.07-.09.16-.15.21-.12.09-.41.07-.36.27.26.02.46-.14.72-.14.45,0,.39.28.04.45-.23.11-.44.04-.48.3.05.15.05.31,0,.48-.08.34-.16.6-.41.86-.17.17-.47.26-.55.38-.03.34-.05.68-.07,1.03,0,.03-.05.09-.07.14.09.28-.14.76-.45.55-.15-.1-.25-.43-.03-.48-.17-.11-.3-.12-.5-.11l-.05-.09c0-.27,0-.55,0-.82-.89-.03-2.07-.39-2.13-1.44-.02-.47.2-.63.21-.75l.03-.09c.21-.05.4-.14.59-.25Z"/>
        <path class="cls-120" d="M179.42,20.29c.49,1.03.34,2.08-.55,2.84-.08.07-.32.17-.33.19-.06.1.32.82.02.88-.26.05-.02-.61-.27-.55-.07.02.09.34-.03.51-.04.06-.19.06-.21.04-.04-.03.05-.69-.03-.69l-.03.69h-.21c-.02-.12.05-.66-.04-.69-.16-.05-.09.15-.1.24-.01.11.05.49-.17.45-.24-.2-.01-.5-.04-.75-.26.13-.12.54-.14.65-.02.09-.16.16-.24.04-.17-.27.12-.71.1-.78-.01-.04-.49-.35-.61-.49-.61-.71-.64-1.68-.28-2.5.02-.05.04-.04.07,0h3.09c-.06-.02-.06-.04,0-.07Z"/>
        <path class="cls-150" d="M165,12.89s0,.05,0,.07c.24.14.2.79,0,.96-.02,0-.05,0-.07,0h-5.35s-.07-.06-.07-.07c-.02-.28.04-.67.07-.96h5.42Z"/>
        <path class="cls-150" d="M171.87,12.89s.04.06.07.07c.03.29.07.61.14.89-.02,0-.05.06-.07.07-1.79.07-3.65.12-5.42,0-.27-.12-.12-.78-.07-1.03.02,0,.05,0,.07,0,1.76-.08,3.53-.08,5.29,0Z"/>
        <path class="cls-12" d="M164.32,20.64l.08.04c-.06.68.02,1.34.24,1.98l-.12.1c.06.02.06.04,0,.07.06.02.06.05,0,.07.02.26,0,.56,0,.82-.02.06-.04.06-.07,0-.27-.06-.56-.06-.82,0-.26-.02-.4-.23-.34-.48-.14-.36-.18-.74-.12-1.16-.22.02-.27-.08-.15-.28l-.09-.03c-.13-.48-.33-.43-.7-.2-.3-.14-.42-.19-.73-.11-.43-.18-.78-.49-1.1-.82l.1-.07c1.28,0,2.55.02,3.81.07Z"/>
        <path class="cls-51" d="M169.95,20.5c.09-.23.79-.19.82.07.07.02.3.11.34.14.49.38.41,1.89-.48,1.99-.31.17-.9.18-1.24.07-.35,0-.77-.49-.82-.82-.15-.09-.09-.7-.04-.87.08-.23.18-.39.45-.36.05-.04.26-.2.27-.21-.01-.24.61-.21.69,0Z"/>
        <path class="cls-51" d="M150.45,21.39c.25.28.5.55.69.89-.08.21-.5.14-.55-.07,0-.05-.18-.07-.07,0,.01.24.26.31.73.21l.1.13c.21.3.44.58.62.91.03.06.28.17,0,.32l-.48.07s-.05,0-.07,0c-.23-.03-.46-.05-.69-.07,0,.19-.07.21-.21.07-.09,0-.15-.25-.15.23l-.06.05c-.05-.23-.1-.32-.14-.27-.43-.03-.86-.05-1.3-.07-.1-.05-.5-.42-.48-.51.06-.3.49.22.55.17.25-.49.63-1.06.96-1.51.08-.27.26-.84.55-.55Z"/>
        <path class="cls-118" d="M162.46,22.14c.42.1.71.68.82,1.1.11.15.23.32.34.48.23.03.44.26.27.48-1.08.06-2.21-.04-3.29,0-.03-.11.02-.16.07-.24.12-.22,1.21-1.67,1.37-1.82-.08-.34.52-.35.41,0Z"/>
        <path class="cls-3" d="M181.55,21.32l.21.07,1.23,1.23.07.21c-.12.41-.49.72-.89.82-.09.07-.13.19-.14.34-.02.12-.21.1-.18-.05l-.03.05c-.02.13-.22.14-.27,0-.02-.06.03-.17-.03-.27-.05-.08-.31-.18-.41-.28-.3-.28-.41-.4-.45-.82-.19-.07-.2-.2,0-.27.06-.5.4-.9.89-1.03Z"/>
        <path class="cls-107" d="M168.99,20.7c-.54.42-.23.66-.41,1.23-.11.03-.26-.09-.28.1-.04.52.03,1.08,0,1.61l-.04.07c-.37-.08-.75-.04-1.13,0-.03.03-.06.05-.08.05-.04-.03-.06-.65,0-.73-.26-.18.05-.42.27-.48-.17-.11.05-.7.18-.8.73-.02.48-.68.23-1.12.4.02.87-.07,1.24.07Z"/>
        <path class="cls-36" d="M158.48,22.28c0,.18-.08.51.17.55.06,0,.03-.45.04-.55l.08-.14h1.2l.1.14c0,.21.05.61-.06.78-.1.16-.37.08-.49.11l-.07.75c0,.21-.22.2-.27,0l-.07-.75s-.19,0-.21,0c-.07.22-.05.46,0,.69,0,.02,0,.05,0,.07-.06.19-.29.19-.34,0-.01-.14.03-.73,0-.75-.04-.04-.49.11-.55-.14-.07-.24-.06-.52,0-.75.02-.21.44-.2.48,0Z"/>
        <path class="cls-136" d="M159.99,8.98l-.14,1.37h-.08c-.35.65-.71,1.29-1.08,1.93l-.14.06c-.25-.06-.37-.18-.55-.27-.05-.02-.08-.06-.08-.12l1.84-3.24c.18-.16.26-.07.23.27Z"/>
        <path class="cls-47" d="M171.53,8.5s.13-.05.15-.01c.65.96,1.45,2.4,1.97,3.44l-.07.13c-.22.12-.22.13-.48.21-.25,0-.45-.42-.46-.66-.16-.24-.34-.47-.56-.66-.12-.36-.27-.72-.42-1.08-.05-.45-.1-.91-.14-1.37Z"/>
        <path class="cls-97" d="M167.34,22.56c-.09.18-.24.23-.27.48-.02.06-.04.06-.07,0-.15.12-.4.19-.55.27-.03.22-.05.42-.07.62-.03.19-.14.18-.21,0-.02-.15-.04-.31-.07-.48-.09-.08-.31-.1-.41-.07-.02.19-.05.37-.07.55-.03.19-.14.18-.21,0-.02-.2-.04-.4-.07-.62-.12-.1-.58-.19-.55-.41.02-.03.07-.05.14-.07-.06-.02-.06-.04,0-.07-.13-.03-.12-.09,0-.14-.03-.05-.04-.11-.01-.15.1-.13,1.93-.07,2.24-.04l.17.13Z"/>
        <path class="cls-115" d="M156.84,20.98c-.67-.41-.67-1.18.07-1.51.56.03,1.01.17.97.86-.04.61-.58.63-1.03.65Z"/>
        <path class="cls-90" d="M154.78,22.08c.07.07.13.06.21,0,.02-.06.04-.06.07,0,0-.21.33-.2.34,0,.04.22.06.45.07.69.04.21.09.41.14.62-.66-.07-.47.08-.48.62-.03.16-.17.16-.21,0-.02-.2-.04-.4-.07-.62,0,0-.06,0-.07,0-.02.21-.05.42-.07.62,0,.16-.17.16-.21,0-.01-.54.18-.69-.48-.62.1-.48.21-.8.21-1.3.11-.1.27-.16.48-.21.22-.06.27.1.07.21Z"/>
        <path class="cls-114" d="M156.08,12.89l-.62,2.13c-.21-.08-.64-.06-.69-.38-.07-.43.25-.48.26-.54.01-.1-.08-.24-.02-.46.04-.13.17-.13.18-.18.03-.21-.17-.61.25-.69.36-.07.4.06.64.12Z"/>
        <path class="cls-114" d="M176.12,15.01l-.62-2.13c.21-.05.49-.31.76-.04.23.23.06.45.1.59.03.08.2.16.23.32.02.13-.06.24-.04.32.03.15.33.16.25.54-.07.35-.43.31-.67.39Z"/>
        <path class="cls-11" d="M181.82,21.32s.04-.06.1-.06c.09,0,.32.11.38.06.03-.03.02-.45.31-.48.32-.03.28.32.31.35.06.06.34-.25.53-.05.22.23-.03.44-.04.5,0,.05.28.17.18.47-.08.23-.52.16-.54.18-.01.01.01.17,0,.27-.03.02-.06.04-.09.04-.08,0-1.14-1.11-1.18-1.18-.01-.02,0-.06.03-.1Z"/>
        <path class="cls-129" d="M159.86,10.35c-.03.69-.14,1.38-.21,2.06-.36,0-.74.01-1.1-.07,0-.32.22-.5.37-.76.21-.37.62-.93.77-1.25.04-.09.06-.34.1-.45.12.03.07.37.07.48Z"/>
        <path class="cls-109" d="M179.21,19.95s0,.06-.01.09c-.05.12-2.31.03-2.58.01-.05,0-.07-.05-.08-.1.79-.93,1.9-.97,2.68,0Z"/>
        <path class="cls-4" d="M159.99,8.98l-.07-.27-1.92,3.36c-.11-.06-.12-.07-.21-.14l2.2-3.91.07.58-.07.38Z"/>
        <path class="cls-4" d="M171.53,8.5c-.01-.15-.18-.51,0-.62l2.27,4.04c-.09.07-.09.07-.21.14l-2.06-3.57Z"/>
        <path class="cls-37" d="M171.87,22.62c.01.11-.11.26-.11.38,0,.16.13.3.11.54-.09.8-1.2.68-1.78.66-.1-.01-.12-.1-.07-.18.03-.06.05.12-.07.18-.07,0-.14,0-.21,0-.18-.13-.12-.16.07-.21-.17.03-.48-.2-.32-.27.06-.03,1.3.01,1.39.04l.09.1c.3-.03.55.04.55-.38,0-.45-.27-.62.2-.99.13-.13.27-.02.14.14Z"/>
        <path class="cls-48" d="M163.01,21.8c.17.31-.29.57-.55.34-.15-.18-.26-.14-.41,0-.37.07-.77-.35-.55-.69.28-.42.65-.02.72-.02.05,0,.15-.13.24-.16.35-.11.59.18.55.52Z"/>
        <path class="cls-14" d="M174.75,22.56c.07.13.1.31.07.45-.03.17-.19.14-.21.22-.04.17.02.5,0,.71-.03.19-.23.19-.27,0-.1-.26-.15-.26-.14,0-.03.15-.24.19-.27,0-.02-.18.03-.41,0-.58-.05-.25-.18-.23-.2-.72.04-.17.45-.15.55,0,.02.1,0,.38.17.4.21.02.25-.31.31-.46Z"/>
        <path class="cls-114" d="M171.66,9.87l.07-.04c-.03.23.25.38.31.52.06.13-.1.2.24.37l-.14.1c.17.1.51.53.62.72.05.09,0,.17.03.23.09.17.24.3.3.49-.1.03-.16.05-.27.07l-.32-.05c-.24-.52-.5-1.02-.78-1.52-.03-.3-.04-.6-.07-.89Z"/>
        <path class="cls-129" d="M171.73,10.76c.21-.14.1-.02.15.08.22.41.47.79.69,1.17.06.12-.09.17.26.32-.3.05-.58.11-.89.07-.05-.53-.15-1.1-.21-1.65Z"/>
        <path class="cls-56" d="M170.5,22.9s.04.14.09.18c.15.14.16.05.26.3l-.06.14h-1.1c-.13.09,1.07.07,1.13.07l.1.14s.07.08.07.14c-.15.02,0-.05-.17-.07-.38-.05-.88.05-1.27,0-.08.23.25.08.27.21-.07.14-.28.15-.34,0-.05-.32.02-.75,0-1.1,0-.04.02-.07.03-.07.1-.01.93-.07.97-.04.02.03.03.06.04.1Z"/>
        <path class="cls-67" d="M159.17,17.21c.05-.07.1-.07.14,0l.07.14c-.31.48.37.61.29.09l.12-.1c.02-.06.04-.06.07,0,.02.04,0,.12.07.17.09.06.2.01.28.03.09.09,0,.13-.27.14-.07.05-.11.12-.14.21-.19.36-.59,0-.72,0-.17,0-.46.35-.79,0-.08-.09,0-.28-.3-.21-.08.02.01.17-.15.14-.38-.08.29-.29.31-.31.16-.11.14-.64.69-.41.22.09.02.1.35.1Z"/>
        <path class="cls-151" d="M179.21,19.95c.05.06.1.14.14.21-.02.06-.04.06-.07,0-.95.05-1.96.07-2.88,0,.05-.08.05-.1.14-.21h2.68Z"/>
        <path class="cls-112" d="M172.28,18.79s-.06.17.14.27c-.02.29-.36.37-.62.34,0-.11-.35-1.37.14-1.06.02.01.3.38.34.45Z"/>
        <path class="cls-60" d="M168.23,23.79c.02-.06.04-.06.07,0-.02.17.02.32-.18.4-.29-.12-.89.14-1.05-.13-.06-.16-.06-.52.1-.31.36-.02.72,0,1.07.03Z"/>
        <path class="cls-54" d="M170.84,23.38c.06.15.04.22.07.34h-1.37s0-.34,0-.34h1.3Z"/>
        <path class="cls-71" d="M151.14,22.28c.23.01.46,0,.69,0,.08.4-.16.26-.48.27-.28,0-1.23.14-.82-.34.01-.04.04-.04.07,0,.14,0,.35.06.55.07Z"/>
        <path class="cls-5" d="M181.82,21.32l1.24,1.23c0,.08.02.21,0,.27l-1.51-1.51c.07-.02.19,0,.27,0Z"/>
        <path class="cls-15" d="M160.06,22.01c0,.09,0,.18,0,.27h-1.37c0-.09,0-.18,0-.27h1.37Z"/>
        <path class="cls-7" d="M164.46,23.72h.07c0,.13.02.27,0,.4-.03.05-.51.07-.61.08-.05-.15-.18-.35-.27-.48.27-.06.56-.06.82,0Z"/>
        <path class="cls-18" d="M149.9,21.94l.06-.86c.2-.27.38.19.49.31-.04,0-.09-.01-.12.02-.08.08-.34.42-.43.53Z"/>
        <path class="cls-74" d="M170.63,22.69l-.14.21c-.15-.07-.81.05-1.03,0,0-.06,0-.12-.07-.14.27,0,.94-.04,1.24-.07Z"/>
        <path class="cls-22" d="M176.4,20.29c.98-.02,1.96-.04,2.94-.07l.08.07v.07h-3.16s0-.05,0-.07c.06-.05.11-.08.14,0Z"/>
        <path class="cls-125" d="M179.28,20.16l-.1.08c-.94.01-1.87.03-2.79.06h-.14c.04-.08.12-.11.14-.14h2.88Z"/>
        <path class="cls-124" d="M179.42,20.29h-3.02c.07-.11.26-.07.38-.07.83-.01,1.71.07,2.51-.07h.07s.05.09.07.14Z"/>
        <path class="cls-121" d="M167.13,23.72c.36-.04.71-.07,1.07-.01l.03.08c-.35.02-.71-.02-1.07,0-.2.01-.07.17-.1.27-.16-.25-.03-.72-.07-1.03h.07c-.02.13-.04.65.07.69Z"/>
        <path class="cls-9" d="M158.48,22.01c0,.09,0,.18,0,.27h-.48c-.02.06-.04.06-.07,0,0-.09,0-.18,0-.27l.03-.09c.14.05.32.08.52.09Z"/>
        <path class="cls-75" d="M158,20.57c0,.2-.05,1.32,0,1.37.04.04.41-.08.48.07h-.55c0-.46-.06-1,.07-1.44Z"/>
        <path class="cls-122" d="M158,19.88c-.11-.07-.07-.26-.07-.38,0-.32-.06-1.27.07-1.48v1.85Z"/>
        <path class="cls-34" d="M154.71,21.8c.06.02.06.04,0,.07.07.33-.22.18-.48.21,0-.07,0-.14,0-.21.15-.1.32-.06.48-.07Z"/>
        <path class="cls-69" d="M174.27,22.62h-.55c0-.07,0-.14,0-.21.26.02.48-.11.55.21Z"/>
        <path class="cls-21" d="M180.66,22.62h-.48s0-.21,0-.21l.48-.07c0,.08,0,.19,0,.27Z"/>
        <path class="cls-17" d="M174.34,23.93c.06.01.06.04,0,.07-.04.03-.11.04-.14.07-.18-.02-.17-.09,0-.14,0-.23,0-.46,0-.69.22.11.13.48.14.69Z"/>
        <path class="cls-50" d="M155.39,21.8c-.01.09,0,.18,0,.27-.06-.02-.25,0-.34,0-.2,0-.19-.23,0-.27.11,0,.23,0,.34,0Z"/>
        <path class="cls-141" d="M150.18,23.86s-1.02.07-1.3-.07c.38.01.76-.02,1.14,0,.09,0,.15.07.17.07Z"/>
        <path class="cls-29" d="M168.3,23.65s0,.09,0,.14h-.07c-.26-.19-.83.02-1.1-.07.33-.16.79-.03,1.17-.07Z"/>
        <path class="cls-108" d="M158.9,23.93c-.05.4-.3.39-.34,0h.34Z"/>
        <path class="cls-59" d="M171.87,22.62c0-.06-.08-.11-.14-.14.02-.02.03-.11.11-.13.32-.09.29.45.03.26Z"/>
        <path class="cls-26" d="M150.73,23.79c.06.02.06.04,0,.07.08.51-.23.43-.21,0,.04,0,.13-.07.21-.07Z"/>
        <path class="cls-143" d="M159.44,23.93c-.02.08.01.19,0,.27-.41.04-.23-.05-.27-.27,0,0,.26,0,.27,0Z"/>
        <path class="cls-105" d="M165.62,23.93s.06-.02.07.07c-.04.29-.3.29-.34,0,0-.06.03-.08.07-.07.07,0,.14-.01.21,0Z"/>
        <path class="cls-62" d="M166.38,23.93s.06-.02.07.07c-.04.29-.3.29-.34,0,0-.06.03-.08.07-.07.07,0,.14-.01.21,0Z"/>
        <path class="cls-33" d="M174.82,22.42c.04-.29-.09-.8.07-1.03,0,.37.04.68-.07,1.03Z"/>
        <path class="cls-20" d="M174.61,23.93c0,.09.01.23-.1.27-.21.08-.17-.07-.17-.21,0-.02,0-.05,0-.07h.27Z"/>
        <path class="cls-66" d="M174.2,23.93v.14c-.21.2-.24.18-.27-.14h.27Z"/>
        <path class="cls-16" d="M159.65,17.14c.06.02.06.04,0,.07-.06.18-.3.2-.34,0-.05,0-.09,0-.14,0v-.07c.22-.09.28-.07.48,0Z"/>
        <path class="cls-23" d="M169.81,24s-.08.13-.07.21c-.19-.02-.24.02-.27-.21h.34Z"/>
        <path class="cls-93" d="M181.82,24c0-.07-.03-.28.03-.27l.03.28h.14c.02-.06.04-.06.07,0-.02.24-.05.1-.27.14-.13-.04-.13-.1,0-.14Z"/>
        <path class="cls-145" d="M158,23.04c-.13-.18-.07-.52-.07-.75h.07c.03.22-.05.56,0,.75Z"/>
        <path class="cls-93" d="M154.91,24c.14,0,.14.1,0,.14-.15-.19-.04-.52-.07-.75.13.08.05.46.07.62Z"/>
        <path class="cls-46" d="M154.71,24.13c-.14,0-.13-.1,0-.14.01-.16-.06-.53.07-.62-.03.24.08.57-.07.75Z"/>
        <path class="cls-53" d="M159.17,23.93c-.05-.25-.1-.48-.07-.75.16.06.02.7.07.75Z"/>
        <path class="cls-33" d="M159.44,23.93c.05-.05-.09-.7.07-.75.04.28-.02.5-.07.75Z"/>
        <path class="cls-24" d="M155.46,22.76c-.04-.26-.08-.39-.07-.69.14.05.04.53.07.69Z"/>
        <path class="cls-96" d="M169.95,24.2s-.12-.2-.03-.21h.24s-.07.21-.07.21c-.05,0-.09,0-.14,0Z"/>
        <path class="cls-55" d="M150.32,24.13s-.13.07-.14.07c-.01-.07.02-.32,0-.34.02,0,.12-.1.14-.07-.02.1.03.27,0,.34Z"/>
        <path class="cls-130" d="M166.45,24s-.05-.07-.07-.07c.03-.17-.07-.54.07-.62-.02.22.03.48,0,.69Z"/>
        <path class="cls-141" d="M151.41,23.86c-.23,0-.46,0-.69,0v-.07c.21,0,.53-.05.69.07Z"/>
        <path class="cls-89" d="M158.9,23.86c-.12-.12-.11-.64,0-.69-.01.23.01.46,0,.69Z"/>
        <path class="cls-63" d="M165.42,23.93s-.04.06-.07.07c-.03-.21.02-.47,0-.69.1.09.09.46.07.62Z"/>
        <path class="cls-39" d="M181.82,24s0,.09,0,.14c-.19.03-.17.19-.27-.14h.27Z"/>
        <path class="cls-130" d="M165.69,24s-.05-.07-.07-.07c.03-.13-.07-.5.07-.55-.02.2.03.43,0,.62Z"/>
        <path class="cls-139" d="M154.71,24s.01.11,0,.14c-.09.19-.2.1-.21-.14h.21Z"/>
        <path class="cls-154" d="M155.12,24c0,.23-.12.33-.21.14-.01-.02,0-.09,0-.14h.21Z"/>
        <path class="cls-102" d="M166.17,23.93s-.04.06-.07.07c-.02-.17.02-.37,0-.55.1.1.09.34.07.48Z"/>
        <path class="cls-141" d="M151.96,23.79c-.2.11-.28.06-.48.07.1-.13.33-.05.48-.07Z"/>
        <path class="cls-33" d="M175.85,20.16c.02-.15-.02-.34,0-.48.18.14.03.35,0,.48Z"/>
        <path class="cls-111" d="M182.17,23.65c-.08.11-.06.22-.07.34h-.07c.01-.3-.09-.28.14-.34Z"/>
        <path class="cls-98" d="M164.94,22.83c-.04.09-.07.06-.14.07-.09.01-.19,0-.27,0,0-.02,0-.05,0-.07.07-.06.3-.05.41,0Z"/>
        <path class="cls-134" d="M164.94,7.13l.13.08c.07.83,1.35.88,1.44.02l.15-.04s-.01-.09,0-.13c.86-.09,1.95,0,2.17,1.02.59,2.78-3.26,4.21-5.22,2.4-1.51-1.39-1.06-3.97,1.34-3.36Z"/>
        <path class="cls-119" d="M166.51,12.89c.18.27-.01.78.07,1.03-.45.35-1.16.05-1.58,0-.02-.31.03-.66,0-.96.41-.3,1.06-.08,1.51-.07Z"/>
        <path class="cls-77" d="M166.38,6.72c.09.16.19.32.27.48-.04.13-.06.27-.12.39-.43.78-1.74.33-1.59-.46.03-.14.22-.34.34-.41.23-.38.89-.38,1.1,0Z"/>
        <path class="cls-142" d="M165.42,5.83c.24-.22.25.13.41.21.07-.34.38-.39.55-.07.04.12.04.22,0,.34-.04.11-.14.23-.14.24,0,.06.17.08.2.11.02.02-.06.05-.06.06-.39-.16-.73-.23-1.1,0l-.07-.13c.12.01.15-.1.2-.14l-.02-.09c.19-.09.2-.27.02-.53Z"/>
        <path class="cls-47" d="M171.87,12.89c-1.54-.18-3.66.03-5.29,0h5.29Z"/>
        <path class="cls-86" d="M165.42,5.83c.24.04.36.33.21.52-.06.08-.18.07-.21.1-.26-.15-.2-.44,0-.62Z"/>
        <path class="cls-64" d="M166.38,6.31v-.34c.12.22.06.16,0,.34Z"/>
        <path class="cls-25" d="M164.32,20.57c.1-.32.37-.55.48-.82-.3-.03-.39-.37-.04-.34.15.01.29.18.48.14.23-.06-.1-.26-.1-.38,0-.23.31-.13.43-.04.09.06.09.22.23.27.15.04.35,0,.52.03.31.06.72.35.9.61.11.15.23.58.25.6.04.03.19,0,.27,0,.39.1.42.67.33.98-.08.27-.49.22-.53.26-.03.02-.11.48-.21.68-.7.07-1.56-.09-2.24,0-.1.01-.14.07-.16.07-.06.08-.18.12-.34.14-.02.05-.04.04-.07,0-.04-.25-.15-.35-.19-.53-.07-.31-.1-1.29-.02-1.59-.06-.02-.06-.04,0-.07Z"/>
        <path class="cls-148" d="M166.31,14.12v3.87s-.5.52-.58.52c-.02-.14-.45-.48-.45-.52v-3.87h1.03Z"/>
        <path class="cls-133" d="M162.74,18.79c0,.13.01.1,0,.27,0,.16-.06.17-.15.03-1.1.02-2.2,0-3.28-.03,0-.12-.34-.03-.38-.27-.08-.43.31-.01.48,0h3.33Z"/>
        <path class="cls-43" d="M168.14,16.06c.9-.2,1,1,.31,1.14s-1-.98-.31-1.14Z"/>
        <path class="cls-52" d="M162.93,15.98c.29-.08.62.48.84.64-.18.13-.54.64-.72.65-.24.02-.59-.51-.78-.65.17-.11.51-.6.67-.64Z"/>
        <path class="cls-152" d="M168.07,14.34c.74-.16,1.15.8.49,1.18-.83.48-1.36-.99-.49-1.18Z"/>
        <path class="cls-131" d="M162.36,14.74h1.3s.14.1.07.14l-.7.75c-.17.03-.59-.64-.75-.75l.07-.14Z"/>
        <path class="cls-30" d="M164.32,20.57s0,.05,0,.07h-3.91l.1-.14,3.81.07Z"/>
        <path class="cls-78" d="M170.77,20.57c-.31-.08-.51-.07-.82-.07-.19-.04-.19-.16,0-.21.01-.03.34-.39.37-.42.39-.26.48.44.45.69Z"/>
        <path class="cls-104" d="M169.26,20.5c-.11-.77.44-.95.69-.21-.02.04.01.15,0,.21-.18,0-.55-.04-.69,0Z"/>
        <path class="cls-87" d="M172.01,13.92c-.48.15-4.6.15-5.25.07-.08,0-.13.03-.17-.07h5.42Z"/>
        <path class="cls-38" d="M162.74,19.06c-.02.18.04.24-.07.41l-.04-.34h-3.36c-.08,0,.03-.06.03-.07h3.43Z"/>
        <rect class="cls-30" x="167.54" y="20.5" width="1.44" height=".07"/>
        <path class="cls-110" d="M160.2,17.55c.15.04.19.21.03.27-.02,0-.07-.24-.31-.14.09-.07.19-.07.27-.14Z"/>
        <path class="cls-73" d="M159.65,17.14s.08-.02.12.02c.04.04.06.13.09.19h-.07c-.17.09-.21.04-.14-.14v-.07Z"/>
        <path class="cls-123" d="M161.92,18.44c-.08-.06-.07-.34.17-.27s-.01.39-.17.27Z"/>
        <path class="cls-132" d="M162.53,18.17c.11.11-.18.43-.27.17-.09-.24.24-.2.27-.17Z"/>
        <path class="cls-57" d="M155.05,21.8v.27h-.07c0,.2-.16.19-.21,0,0-.08,0-.15-.07-.21v-.07c.17,0,.17-.01.34,0Z"/>
        <path class="cls-70" d="M154.71,20.5c.11-.07.1-.12.17-.21.11.32-.28.44-.51.34-.03-.09.06-.12.07-.14.07-.02.16-.02.27,0Z"/>
        <path class="cls-101" d="M154.71,20.5c-.11.07-.14.1-.27,0,.01-.03-.01-.09,0-.14l.27.14Z"/>
        <rect class="cls-77" x="154.85" y="19.61" width=".21" height=".14"/>
        <rect class="cls-77" x="154.57" y="19.61" width=".21" height=".14"/>
        <path class="cls-137" d="M173.84,19.28c.07-.02.78,0,.84.02.29.14.24.65-.12.71-.05,0-.67,0-.7-.02-.26-.11-.31-.63-.02-.71Z"/>
        <path class="cls-40" d="M173.38,20.7c.07,0,.1,0,.07.07-.11.07-.12.14-.31.14s-.2-.08-.31-.14c-.09-.09-.05-.13.07-.07.21.02.17.11.48,0Z"/>
        <path class="cls-49" d="M172.9,20.7s-.04.06-.07.07c-.03-.02-.11,0-.17-.07-.08-.08-.07-.18-.1-.28-.02-.09-.02-.11.07-.07.07.14.12.28.27.34Z"/>
        <path class="cls-13" d="M172.62,20.36l-.07.07c-.04-.11-.11-.19-.07-.34.16.02.1.21.14.27Z"/>
        <path class="cls-82" d="M173.59,20.64s.02-.24.1-.27c.24.2-.07.24-.1.27Z"/>
        <path class="cls-49" d="M173.59,20.64s.05.02-.14.14l-.07-.07s.2-.06.21-.07Z"/>
        <path class="cls-100" d="M177.98,20.77c.23-.39.64-.12.62.3-.03.45-.62.33-.68.11,0-.13.05-.18.14-.07.11-.09.12-.12,0-.21-.14.17-.12.02-.07-.14Z"/>
        <path class="cls-10" d="M177.77,20.98c-.14.02-.11.06,0,.14-.08.42-.63.39-.63-.1,0-.53.57-.62.63-.03Z"/>
        <path class="cls-45" d="M178.05,22.08c-.06.03-.11.07-.18.07-.22,0-.6-.38-.34-.48.03-.01,0,.24.38.34.16-.14.19-.15.14.07Z"/>
        <path class="cls-72" d="M177.77,20.98s0,.1,0,.14c-.51.23-.42-.52,0-.14Z"/>
        <path class="cls-106" d="M178.05,22.08c-.03-.07-.08-.05-.14-.07.17-.03.18-.39.31-.34.27.1-.08.37-.17.41Z"/>
        <path class="cls-135" d="M178.05,20.91c.13.08.1.12,0,.21-.03,0-.09.06-.14.07-.04-.14,0-.29.07-.41v.1s.07.03.07.04Z"/>
        <path class="cls-101" d="M164.46,23.72h-.82c-.08-.07.74-.14.82,0Z"/>
        <path class="cls-6" d="M164.94,22.76s0,.05,0,.07h-.41s0-.05,0-.07h.07c.16-.07.27-.07.34,0Z"/>
        <path class="cls-138" d="M170.02,21.8c-.02.06-.05.06-.07,0-.54-.27.24-.64.28-.24.02.15-.05.24-.21.24Z"/>
        <path class="cls-41" d="M170.02,21.8s.03.18.1.21c.16.04.12-.22.24-.21.14.37-.68.35-.75.17-.02-.04-.04-.19.07-.17l.24.21.03-.21s.06,0,.07,0Z"/>
        <path class="cls-144" d="M169.33,21.67c-.04.15-.21.15-.34.14v-.07s.34-.07.34-.07Z"/>
        <path class="cls-144" d="M169.33,21.46v.07c-.13,0-.3.02-.34-.14l.34.07Z"/>
        <path class="cls-103" d="M150.52,22.21c-.11,0-.18.03-.27.07-.06-.23.21-.11.38-.14l-.04.07s-.05,0-.07,0Z"/>
        <path class="cls-2" d="M162.12,22.42c.07.06.1.48.28,0,.26-.05.12.25,0,.31-.45.21-.5-.51-.28-.31Z"/>
        <path class="cls-19" d="M180.93,22.62c.07-.13.09-.26.07-.41.01-.02-.02-.26.28-.18.62.17.03,1.17-.35.59Z"/>
        <path class="cls-88" d="M182.54,22.76c.37.29-.21.95-.51.51l.51-.51Z"/>
        <path class="cls-146" d="M180.93,22.62c-.19-.29-.02-.27.07-.41.22.09.19.42-.07.41Z"/>
        <path class="cls-35" d="M164.94,22.76h-.34c.09-.07.23-.11.34-.14,0,.05,0,.09,0,.14Z"/>
        <path class="cls-81" d="M154.98,22.08c0,.12.05.69-.1.68s-.1-.56-.1-.68h.21Z"/>
        <path class="cls-85" d="M154.64,22.9c.14.12-.37.36-.34,0h.34Z"/>
        <path class="cls-147" d="M162.6,21.8s-.26.04-.2-.1c.08-.21.28.03.2.1Z"/>
        <path class="cls-1" d="M161.92,21.8s-.04-.26.1-.2c.21.08-.04.28-.1.2Z"/>
        <path class="cls-58" d="M170.15,22.97s-.04.32-.17.27c-.36-.13.03-.4.17-.27Z"/>
        <path class="cls-94" d="M158.53,17.22c.53-.16.58.62.16.71-.34.07-.52-.61-.16-.71Z"/>
        <path class="cls-149" d="M159.65,17.21s.13.13.14.14c.26.81-1.05.73-.48-.14.09,0,.28-.02.34,0Z"/>
        <path class="cls-128" d="M167.06,9.8h-.15c-.28-.53-.67-.48-1.1-.17-.44-.3-.82-.36-1.13.17h-.16c-.45-.34-.8-.81-.69-1.41.01-.06.05-.17.1-.17h3.78c.22,0,.04.73-.02.87-.15.39-.32.49-.63.71Z"/>
        <path class="cls-27" d="M167.06,9.8c-.79.55-1.75.6-2.54,0,.24-.41.55-.68,1.05-.46.08.04.19.18.22.18.03,0,.29-.22.43-.25.38-.07.71.2.84.54Z"/>
        <path class="cls-68" d="M166.14,5.84c.2.02.28.61,0,.6-.33,0-.31-.63,0-.6Z"/>
        <path class="cls-126" d="M166.7,19.97c.33.33.04,1.07-.46.91-.12-.04-.29-.24-.31-.24-.07,0-.34.51-.76.14-.29-.26-.2-.83.17-.93.33-.09.55.24.58.24.05,0,.38-.51.77-.11Z"/>
        <path class="cls-76" d="M165.9,21.32c.12.47-.6.6-.75.23-.05-.12-.02-.2.13-.16.02.18.11.25.3.2s.11-.31.32-.26Z"/>
        <path class="cls-153" d="M167.06,20.92c.16.1,0,.46-.2.37-.3-.13-.04-.53.2-.37Z"/>
        <path class="cls-95" d="M167.81,20.92c.16.1,0,.46-.2.37-.3-.13-.04-.53.2-.37Z"/>
        <path class="cls-49" d="M168.1,16.79c-.17-.26.23-.64.44-.34s-.31.55-.44.34Z"/>
        <path class="cls-44" d="M163.43,16.52c-.25.54-.45.59-.82.1.1-.07.3-.36.39-.37.13-.02.26.29.44.27Z"/>
        <path class="cls-117" d="M168.14,14.55c.58-.12.78.77.16.84-.51.06-.69-.73-.16-.84Z"/>
        <polygon class="cls-92" points="163.36 14.95 163.04 15.28 162.67 14.98 163.36 14.95"/>
        <path class="cls-83" d="M174.2,19.54c0,.27-.27.27-.27,0h.27Z"/>
        <path class="cls-1" d="M174.55,19.54c.07.07-.13.31-.2.1-.05-.14.18-.12.2-.1Z"/>
        <path class="cls-91" d="M178.05,21.12c-.09-.08,0-.19,0-.21.21-.16.3.21.09.27-.04.01-.08-.06-.09-.06Z"/>
        <path class="cls-32" d="M158.83,17.69c-.12.13-.31-.27-.1-.27.07,0,.15.23.1.27Z"/>
        <path class="cls-31" d="M159.24,17.48c.05-.06.31-.08.27.1-.05.21-.37.02-.27-.1Z"/>
        <path class="cls-127" d="M166.14,20.16c.4-.13.36.43.12.47-.19.03-.35-.39-.12-.47Z"/>
        <path class="cls-113" d="M165.75,20.56c-.13.21-.55-.19-.23-.4.23-.08.31.29.23.4Z"/>
      </g>
      <image width="1024" height="576" transform="translate(0 41.39) rotate(-27.01) scale(.05)" xlink:href="../../../../../Downloads/pngegg (5).png"/>
      <g>
        <path class="cls-61" d="M89.21,72.71c-11.63,0-19.76-7.71-19.76-18.74v-22.68c0-3.18,2.06-5.24,5.24-5.24h4.56c3.18,0,5.24,2.06,5.24,5.24v22.68c0,3.26,1.76,5.2,4.72,5.2,2.31,0,4.78-1.37,4.78-5.2v-22.68c0-3.18,2.06-5.24,5.24-5.24h4.5c3.18,0,5.24,2.06,5.24,5.24v22.68c0,11.03-8.13,18.74-19.76,18.74Z"/>
        <path class="cls-79" d="M103.72,28.05c2.1,0,3.24,1.14,3.24,3.24v22.68c0,10.86-8.16,16.74-17.76,16.74s-17.76-5.88-17.76-16.74v-22.68c0-2.1,1.14-3.24,3.24-3.24h4.56c2.1,0,3.24,1.14,3.24,3.24v22.68c0,4.74,3.06,7.2,6.72,7.2s6.78-2.46,6.78-7.2v-22.68c0-2.1,1.14-3.24,3.24-3.24h4.5M103.72,24.05h-4.5c-4.33,0-7.24,2.91-7.24,7.24v22.68c0,2.64-1.51,3.2-2.78,3.2-1.83,0-2.72-1.05-2.72-3.2v-22.68c0-4.33-2.91-7.24-7.24-7.24h-4.56c-4.33,0-7.24,2.91-7.24,7.24v22.68c0,12.21,8.95,20.74,21.76,20.74s21.76-8.53,21.76-20.74v-22.68c0-4.33-2.91-7.24-7.24-7.24h0Z"/>
      </g>
      <image width="1024" height="576" transform="translate(63.28 17) rotate(52.59) scale(.02)" xlink:href="../../../../../Downloads/pngegg (7).png"/>
      <image width="726" height="630" transform="translate(92 1) scale(.05)" xlink:href="../../../../../Downloads/pngegg (3).png"/>
      <g>
        <path class="cls-99" d="M63.27,73.05c-2.68,0-4.7-1.37-5.67-3.85l-1.43-3.77h-11.99l-1.36,3.68c-.87,2.53-2.88,3.95-5.63,3.95h-4.74c-1.88,0-3.38-.69-4.22-1.94-.84-1.25-.92-2.89-.21-4.62l14.07-36.62c.98-2.5,3.02-3.87,5.74-3.87h4.8c2.72,0,4.68,1.33,5.67,3.85l14.39,36.66c.67,1.78.57,3.42-.28,4.65-.84,1.22-2.32,1.89-4.17,1.89h-4.98ZM52.63,52.57l-2.44-6.89-2.56,6.89h5Z"/>
        <path class="cls-79" d="M52.63,28c1.91,0,3.14.86,3.81,2.58l14.39,36.66c.86,2.28-.12,3.81-2.58,3.81h-4.98c-1.84,0-3.14-.86-3.81-2.58l-1.91-5.04h-14.76l-1.84,4.98c-.62,1.78-1.85,2.64-3.75,2.64h-4.74c-2.46,0-3.51-1.54-2.58-3.81l14.08-36.66c.68-1.72,1.97-2.58,3.88-2.58h4.8M44.76,54.57h10.7l-5.23-14.76-5.47,14.76M52.63,24h-4.8c-3.55,0-6.32,1.87-7.6,5.12l-14.08,36.65c-1.27,3.18-.28,5.41.42,6.45.71,1.05,2.42,2.82,5.88,2.82h4.74c3.6,0,6.34-1.93,7.52-5.29l.86-2.33h9.21l.93,2.46.02.05c1.28,3.25,4.02,5.12,7.54,5.12h4.98c3.4,0,5.1-1.73,5.81-2.75.72-1.04,1.73-3.25.51-6.48l-14.41-36.7c-1.28-3.25-4.03-5.12-7.54-5.12h0Z"/>
      </g>
      <image width="1024" height="576" transform="translate(225 8) scale(.03)" xlink:href="../../../../../Downloads/pngegg (2).png"/>
      <g>
        <path class="cls-80" d="M130.05,72.71c-8.78,0-15.36-3.85-18.05-10.55-.72-1.87-.33-3.25.11-4.09.67-1.26,1.96-2.17,3.63-2.56l2.99-.72c.5-.11.96-.17,1.39-.17,2.46,0,3.83,1.69,4.74,3.16.99,1.53,2.79,2.35,5.2,2.35.64,0,3.82-.09,3.82-1.84,0-.85-.93-1.58-2.76-2.18l-5.16-1.88c-8.31-2.67-12.98-7.62-13.07-13.91,0-8.66,7.33-14.93,17.42-14.93,7.09,0,12.41,2.96,15.38,8.56.76,1.39.89,2.86.36,4.14-.56,1.35-1.79,2.36-3.48,2.86l-2.85.79c-.57.17-1.12.25-1.67.25-2.18,0-3.56-1.35-4.62-2.66l-.05-.06-.05-.07c-.56-.83-1.49-1.23-2.85-1.23-1.13,0-2.8.39-2.8,1.48,0,.84,1.43,1.53,2.63,1.96l5.04,1.8c8.89,3.05,13.12,7.69,13.27,14.62,0,9.06-7.29,14.88-18.56,14.88Z"/>
        <path class="cls-79" d="M130.29,27.39c6.54,0,11.1,2.76,13.62,7.5,1.08,1.98.12,3.54-1.92,4.14l-2.82.78c-.41.12-.79.18-1.14.18-1.21,0-2.08-.71-3.06-1.92-.9-1.32-2.4-2.1-4.5-2.1-2.52,0-4.8,1.2-4.8,3.48,0,1.32.78,2.7,3.96,3.84l5.04,1.8c8.76,3,11.82,7.2,11.94,12.78,0,8.58-7.5,12.84-16.56,12.84-8.04,0-13.86-3.48-16.2-9.3-.78-2.04.3-3.48,2.34-3.96l3-.72c.33-.07.64-.11.92-.11,1.31,0,2.15.78,3.04,2.21,1.32,2.04,3.66,3.3,6.9,3.3,3.48,0,5.82-1.38,5.82-3.84,0-1.56-1.02-3.06-4.14-4.08l-5.1-1.86c-3.54-1.14-11.64-4.38-11.76-12.06,0-7.86,6.72-12.9,15.42-12.9M130.29,23.39c-11.25,0-19.42,7.11-19.42,16.9v.06c.08,5.07,2.66,9.35,7.4,12.48h-.01s-3,.72-3,.72c-2.23.52-3.98,1.79-4.92,3.57-.9,1.7-.98,3.73-.22,5.71v.03s.02.03.02.03c3.02,7.5,10.27,11.81,19.91,11.81,12.3,0,20.56-6.77,20.56-16.84v-.09c-.14-6.28-3.29-11-9.6-14.33l2.04-.57h.03s.03-.02.03-.02c2.28-.67,3.97-2.1,4.77-4.01.76-1.84.6-3.93-.46-5.88-3.28-6.17-9.37-9.58-17.13-9.58h0ZM126.52,56.68s-.06-.09-.09-.14l3.93,1.43.06.02.06.02c.09.03.18.06.26.09-.21.02-.44.03-.7.03-1.7,0-2.89-.49-3.53-1.45h0Z"/>
      </g>
      <g>
        <path class="cls-116" d="M164.37,72.05c-3.18,0-5.24-2.06-5.24-5.24v-27.34h-6.58c-3.18,0-5.24-2.06-5.24-5.24v-2.94c0-3.18,2.06-5.24,5.24-5.24h28.2c3.18,0,5.24,2.06,5.24,5.24v2.94c0,3.18-2.06,5.24-5.24,5.24h-6.82v27.34c0,3.18-2.06,5.24-5.24,5.24h-4.32Z"/>
        <path class="cls-79" d="M180.74,28.05c2.1,0,3.24,1.14,3.24,3.24v2.94c0,2.1-1.14,3.24-3.24,3.24h-8.82v29.34c0,2.1-1.14,3.24-3.24,3.24h-4.32c-2.1,0-3.24-1.14-3.24-3.24v-29.34h-8.58c-2.1,0-3.24-1.14-3.24-3.24v-2.94c0-2.1,1.14-3.24,3.24-3.24h28.2M180.74,24.05h-28.2c-4.33,0-7.24,2.91-7.24,7.24v2.94c0,4.33,2.91,7.24,7.24,7.24h4.58v25.34c0,4.33,2.91,7.24,7.24,7.24h4.32c4.33,0,7.24-2.91,7.24-7.24v-25.34h4.82c4.33,0,7.24-2.91,7.24-7.24v-2.94c0-4.33-2.91-7.24-7.24-7.24h0Z"/>
      </g>
      <g>
        <path class="cls-84" d="M192.56,26.05h4.56c2.89,0,5.24,2.35,5.24,5.24v35.52c0,2.89-2.35,5.24-5.24,5.24h-4.56c-2.89,0-5.24-2.35-5.24-5.24V31.29c0-2.89,2.35-5.24,5.24-5.24Z"/>
        <path class="cls-79" d="M197.12,28.05c2.04,0,3.24,1.14,3.24,3.24v35.52c0,2.1-1.2,3.24-3.24,3.24h-4.56c-2.1,0-3.24-1.14-3.24-3.24V31.29c0-2.1,1.14-3.24,3.24-3.24h4.56M197.12,24.05h-4.56c-4.33,0-7.24,2.91-7.24,7.24v35.52c0,4.33,2.91,7.24,7.24,7.24h4.56c4.26,0,7.24-2.98,7.24-7.24V31.29c0-4.26-2.98-7.24-7.24-7.24h0Z"/>
      </g>
      <g>
        <path class="cls-65" d="M238.73,73.05c-2.45,0-4.32-.98-5.71-2.99l-11.78-16.47v14.07c0,3.27-2.11,5.38-5.39,5.38h-4.76c-3.32,0-5.38-2.06-5.38-5.38V30.56c0-3.32,2.06-5.38,5.38-5.38h2.95c2.4,0,4.28.96,5.75,2.94l11.68,16.24v-13.79c0-3.32,2.06-5.38,5.39-5.38h4.76c3.32,0,5.38,2.06,5.38,5.38v37.11c0,3.32-2.06,5.38-5.38,5.38h-2.88Z"/>
        <path class="cls-79" d="M241.61,27.17c2.19,0,3.39,1.19,3.39,3.38v37.11c0,2.19-1.19,3.39-3.39,3.39h-2.88c-1.82,0-3.07-.69-4.07-2.13l-15.42-21.56v20.31c0,2.19-1.25,3.39-3.39,3.39h-4.76c-2.19,0-3.38-1.19-3.38-3.39V30.56c0-2.19,1.19-3.38,3.38-3.38h2.95c1.82,0,3.07.69,4.14,2.13l15.29,21.25v-20c0-2.19,1.19-3.38,3.39-3.38h4.76M241.61,23.17h-4.76c-4.42,0-7.39,2.97-7.39,7.38v7.59l-8.05-11.18-.02-.02-.02-.02c-1.84-2.49-4.32-3.75-7.35-3.75h-2.95c-4.42,0-7.38,2.97-7.38,7.38v37.11c0,4.42,2.97,7.39,7.38,7.39h4.76c4.35,0,7.39-3.04,7.39-7.39v-7.84l8.15,11.4c1.77,2.54,4.24,3.82,7.34,3.82h2.88c4.42,0,7.39-2.97,7.39-7.39V30.56c0-4.42-2.97-7.38-7.39-7.38h0Z"/>
      </g>
      <image width="1839" height="2600" transform="translate(66 61) scale(.01)" xlink:href="../../../../../Downloads/pngegg (6).png"/>
      <image width="1000" height="460" transform="translate(7 63) scale(.05)" xlink:href="../../../../../Downloads/pngegg.png"/>
      <image width="1600" height="746" transform="translate(103 62) scale(.03)" xlink:href="../../../../../Downloads/pngegg (4).png"/>
    </g>
  </g>
</svg>